<svg id="Layer_4" data-name="Layer 4" xmlns="http://www.w3.org/2000/svg" viewBox="0 0 183.1172 57.916"><title>logo_bonzo</title><path d="M66.3306,41.6768a1.2535,1.2535,0,0,1-1.4185-1.418V19.7676a1.2537,1.2537,0,0,1,1.4185-1.4185h8.7637a7.5089,7.5089,0,0,1,5.0439,1.7652,7.0411,7.0411,0,0,1,1.5449,1.8286,6.8458,6.8458,0,0,1,.7564,3.31v.0318a5.3919,5.3919,0,0,1-.7251,2.6162,3.0267,3.0267,0,0,1-1.45,1.45,4.3568,4.3568,0,0,1,1.9863,1.3554A6.0893,6.0893,0,0,1,83.7637,34.3a7.6249,7.6249,0,0,1-.5044,3.09,6.9937,6.9937,0,0,1-2.2383,2.9629,6.91,6.91,0,0,1-4.2558,1.3243ZM70.5865,23.645v3.9092h4.1928a2.3967,2.3967,0,0,0,1.4185-.4727,1.758,1.758,0,0,0,.6933-1.3872,1.8213,1.8213,0,0,0-1.7968-2.0493Zm0,8.7324v3.9087h5.17a1.845,1.845,0,0,0,2.0493-1.9541c0-1.3554-.8516-1.9546-2.2383-1.9546Z" style="fill:#231f20"/><path d="M96.6543,42.2451a12.2775,12.2775,0,0,1-8.6684-3.5937A12.2476,12.2476,0,0,1,96.6543,17.75,12.27,12.27,0,0,1,108.918,30.0132a12.0733,12.0733,0,0,1-3.5938,8.6382A12.3342,12.3342,0,0,1,96.6543,42.2451Zm0-18.5371a6.2984,6.2984,0,1,0,4.4453,1.86A6.2906,6.2906,0,0,0,96.6543,23.708Z" style="fill:#231f20"/><path d="M111.753,41.6768a1.2537,1.2537,0,0,1-1.419-1.418V19.7676a1.2538,1.2538,0,0,1,1.419-1.4185h2.7109a2.0193,2.0193,0,0,1,1.7344.9141l7.2822,10.56V19.7676a1.2535,1.2535,0,0,1,1.418-1.4185H128.02a1.2542,1.2542,0,0,1,1.4189,1.4185V40.2588a1.254,1.254,0,0,1-1.4189,1.418h-2.711a2.0182,2.0182,0,0,1-1.7344-.9141L116.292,30.1079V40.2588a1.2533,1.2533,0,0,1-1.4179,1.418Z" style="fill:#231f20"/><path d="M133.8809,41.6768a1.2537,1.2537,0,0,1-1.419-1.418V37.8a2.4626,2.4626,0,0,1,.6-1.7656l8.7314-11.7271h-7.44a1.2541,1.2541,0,0,1-1.4189-1.4184V19.7676a1.2542,1.2542,0,0,1,1.4189-1.4185H147.878a1.2535,1.2535,0,0,1,1.4179,1.4185v2.4272a2.9454,2.9454,0,0,1-.5674,1.7656L140.2491,35.72h8.1015a1.2541,1.2541,0,0,1,1.419,1.418v3.1211a1.2541,1.2541,0,0,1-1.419,1.418Z" style="fill:#231f20"/><path d="M162.6289,42.2451a12.2787,12.2787,0,0,1-8.67-3.5937,12.2476,12.2476,0,0,1,8.67-20.9014,12.27,12.27,0,0,1,12.2627,12.2632,12.0732,12.0732,0,0,1-3.5937,8.6382A12.3339,12.3339,0,0,1,162.6289,42.2451Zm0-18.5371a6.2984,6.2984,0,1,0,4.4444,1.86A6.2913,6.2913,0,0,0,162.6289,23.708Z" style="fill:#231f20"/><path d="M179.8067,42.1816a3.2323,3.2323,0,0,1-2.3643-.9775,3.3215,3.3215,0,1,1,4.6973-4.6973,3.3679,3.3679,0,0,1,.9775,2.3653,3.2876,3.2876,0,0,1-.9775,2.332A3.1621,3.1621,0,0,1,179.8067,42.1816Zm2.3017-9.9931a1.2948,1.2948,0,0,1-1.45,1.3867h-1.7021a1.2939,1.2939,0,0,1-1.45-1.3867l-.6309-12.295c-.0312-.977.41-1.45,1.3867-1.45H181.32c.9766,0,1.418.4731,1.3868,1.45Z" style="fill:#ee3c96"/><path d="M28.958,57.916A28.958,28.958,0,1,1,57.916,28.958,28.9908,28.9908,0,0,1,28.958,57.916ZM28.958,4A24.958,24.958,0,1,0,53.916,28.958,24.9865,24.9865,0,0,0,28.958,4Z" style="fill:#231f20"/><path d="M24.53,25.0459h2.9844a16.7864,16.7864,0,0,0,1.7558-.0869,3.891,3.891,0,0,0,1.4483-.418,2.5416,2.5416,0,0,0,.9873-.9434,3.2054,3.2054,0,0,0,.373-1.6679,2.9669,2.9669,0,0,0-.3945-1.6231,2.6643,2.6643,0,0,0-1.0322-.9443,4.04,4.04,0,0,0-1.4043-.417,13.6849,13.6849,0,0,0-1.5576-.0879H24.53Z" style="fill:none"/><path d="M42.2256,32.5518a8.3715,8.3715,0,0,0-1.7812-2.4581,7.5289,7.5289,0,0,0-2.1934-1.4482q-1.1527-.4819-1.9336-.7461a12.3459,12.3459,0,0,0,1.6377-.79,7.7448,7.7448,0,0,0,1.77-1.3828,7.6376,7.6376,0,0,0,1.4209-2.129,7.3893,7.3893,0,0,0,.59-3.1162,8.09,8.09,0,0,0-.68-3.4892,7.1329,7.1329,0,0,0-1.7754-2.37A8.6035,8.6035,0,0,0,36.7832,13.13a14.162,14.162,0,0,0-2.8916-.79,25.6156,25.6156,0,0,0-2.915-.3066c-.3115-.0147-.5938-.0234-.8828-.0332-5.9678.043-5.5586,6.8574-5.5586,6.8574h3.1553a13.6849,13.6849,0,0,1,1.5576.0879,4.04,4.04,0,0,1,1.4043.417,2.6643,2.6643,0,0,1,1.0322.9443,2.9669,2.9669,0,0,1,.3945,1.6231,3.2054,3.2054,0,0,1-.373,1.6679,2.5416,2.5416,0,0,1-.9873.9434,3.891,3.891,0,0,1-1.4483.418,16.7864,16.7864,0,0,1-1.7558.0869h-2.98v6.1006h3.3574a14.313,14.313,0,0,1,2.2051.1553,4.8253,4.8253,0,0,1,1.7031.5742,2.8911,2.8911,0,0,1,1.1143,1.1465,3.943,3.943,0,0,1,.3935,1.8759,3.8689,3.8689,0,0,1-.48,2.0547,3.1982,3.1982,0,0,1-1.2452,1.17,5.2645,5.2645,0,0,1-1.6806.5293,12.8831,12.8831,0,0,1-1.835.1309H24.5352l.0224,7.1953H28.417c.9033,0,1.8877-.0469,2.9522-.1055a24.1955,24.1955,0,0,0,3.1943-.4179,16.3929,16.3929,0,0,0,3.1289-.9219,8.9339,8.9339,0,0,0,2.69-1.69,7.7524,7.7524,0,0,0,1.8818-2.6757,9.679,9.679,0,0,0,.7-3.8848A8.382,8.382,0,0,0,42.2256,32.5518Z" style="fill:#231f20"/><path d="M24.53,38.7832H14.9619v2.0449c-.0029.07-.01.1387-.01.209a4.8448,4.8448,0,0,0,.3867,1.93,4.73,4.73,0,0,0,1.0752,1.5644,5.2382,5.2382,0,0,0,1.5713,1.0508,4.7189,4.7189,0,0,0,1.915.3965c.127,0,.3516.002.4873.002a1.0624,1.0624,0,0,0,.1133-.002h4.0566l-.0224-7.1953Z" style="fill:#ee3c96"/><path d="M24.5352,31.1465V25.0459H24.53V18.8574h.0049S24.126,12.043,30.0938,12l.0215-.001c-.087-.0029-.1661-.0049-.251-.0068-.1348-.0039-.2676-.0078-.3975-.0108-.3535-.0088-.6953-.0146-1.0078-.0146l-8.7519.0068h.0244a4.495,4.495,0,0,0-1.7461.4092,5.6815,5.6815,0,0,0-1.5713,1.0723,4.817,4.817,0,0,0-1.4619,3.4531c0,.1436.0088.2832.02.4228h-.01V31.1465h9.5733Z" style="fill:#ee3c96"/></svg>